<svg xmlns="http://www.w3.org/2000/svg" width="576.949" height="22.003"><g id="组_6213" data-name="组 6213" transform="translate(-161 -769)"><g id="组_6211" data-name="组 6211" transform="translate(160.998 781)"><g id="组_6200" data-name="组 6200"><g id="组_6210" data-name="组 6210" transform="translate(528.918)"><g id="组_6195" data-name="组 6195" transform="translate(0)"><g id="组_6196" data-name="组 6196"><path id="减去_36" data-name="减去 36" d="M46.082,10H1A1,1,0,0,1,0,9V1A1,1,0,0,1,1,0H22.541a.5.5,0,0,1,.5.5v4a.5.5,0,0,0,1,0V.5a.5.5,0,0,1,.5-.5H46.082a1,1,0,0,1,1,1V9A1,1,0,0,1,46.082,10Z" fill="#d3d9e8"/></g></g></g><g id="组_6209" data-name="组 6209" transform="translate(480.835)"><g id="组_6195-2" data-name="组 6195" transform="translate(0)"><g id="组_6196-2" data-name="组 6196"><path id="减去_36-2" data-name="减去 36" d="M46.082,10H1A1,1,0,0,1,0,9V1A1,1,0,0,1,1,0H22.541a.5.5,0,0,1,.5.5v4a.5.5,0,0,0,1,0V.5a.5.5,0,0,1,.5-.5H46.082a1,1,0,0,1,1,1V9A1,1,0,0,1,46.082,10Z" fill="#d3d9e8"/></g></g></g><g id="组_6208" data-name="组 6208" transform="translate(432.751)"><g id="组_6195-3" data-name="组 6195" transform="translate(0)"><g id="组_6196-3" data-name="组 6196"><path id="减去_36-3" data-name="减去 36" d="M46.082,10H1A1,1,0,0,1,0,9V1A1,1,0,0,1,1,0H22.541a.5.5,0,0,1,.5.5v4a.5.5,0,0,0,1,0V.5a.5.5,0,0,1,.5-.5H46.082a1,1,0,0,1,1,1V9A1,1,0,0,1,46.082,10Z" fill="#d3d9e8"/></g></g></g><g id="组_6207" data-name="组 6207" transform="translate(384.668)"><g id="组_6195-4" data-name="组 6195"><g id="组_6196-4" data-name="组 6196"><path id="减去_36-4" data-name="减去 36" d="M46.082,10H1A1,1,0,0,1,0,9V1A1,1,0,0,1,1,0H22.541a.5.5,0,0,1,.5.5v4a.5.5,0,0,0,1,0V.5a.5.5,0,0,1,.5-.5H46.082a1,1,0,0,1,1,1V9A1,1,0,0,1,46.082,10Z" fill="#d3d9e8"/></g></g></g><g id="组_6206" data-name="组 6206" transform="translate(336.584)"><g id="组_6195-5" data-name="组 6195"><g id="组_6196-5" data-name="组 6196"><path id="减去_36-5" data-name="减去 36" d="M46.082,10H1A1,1,0,0,1,0,9V1A1,1,0,0,1,1,0H22.541a.5.5,0,0,1,.5.5v4a.5.5,0,0,0,1,0V.5a.5.5,0,0,1,.5-.5H46.082a1,1,0,0,1,1,1V9A1,1,0,0,1,46.082,10Z" fill="#d3d9e8"/></g></g></g><g id="组_6205" data-name="组 6205" transform="translate(288.501)"><g id="组_6195-6" data-name="组 6195" transform="translate(0)"><g id="组_6196-6" data-name="组 6196"><path id="减去_36-6" data-name="减去 36" d="M46.082,10H1A1,1,0,0,1,0,9V1A1,1,0,0,1,1,0H22.541a.5.5,0,0,1,.5.5v4a.5.5,0,0,0,1,0V.5a.5.5,0,0,1,.5-.5H46.082a1,1,0,0,1,1,1V9A1,1,0,0,1,46.082,10Z" fill="#d3d9e8"/></g></g></g><g id="组_6204" data-name="组 6204" transform="translate(240.417)"><g id="组_6195-7" data-name="组 6195" transform="translate(0)"><g id="组_6196-7" data-name="组 6196"><path id="减去_36-7" data-name="减去 36" d="M46.082,10H1A1,1,0,0,1,0,9V1A1,1,0,0,1,1,0H22.541a.5.5,0,0,1,.5.5v4a.5.5,0,0,0,1,0V.5a.5.5,0,0,1,.5-.5H46.082a1,1,0,0,1,1,1V9A1,1,0,0,1,46.082,10Z" fill="#d3d9e8"/></g></g></g><g id="组_6203" data-name="组 6203" transform="translate(192.334)"><g id="组_6195-8" data-name="组 6195" transform="translate(0)"><g id="组_6196-8" data-name="组 6196"><path id="减去_36-8" data-name="减去 36" d="M46.082,10H1A1,1,0,0,1,0,9V1A1,1,0,0,1,1,0H22.541a.5.5,0,0,1,.5.5v4a.5.5,0,0,0,1,0V.5a.5.5,0,0,1,.5-.5H46.082a1,1,0,0,1,1,1V9A1,1,0,0,1,46.082,10Z" fill="#d3d9e8"/></g></g></g><g id="组_6202" data-name="组 6202" transform="translate(144.25)"><g id="组_6195-9" data-name="组 6195"><g id="组_6196-9" data-name="组 6196"><path id="减去_36-9" data-name="减去 36" d="M46.082,10H1A1,1,0,0,1,0,9V1A1,1,0,0,1,1,0H22.541a.5.5,0,0,1,.5.5v4a.5.5,0,0,0,1,0V.5a.5.5,0,0,1,.5-.5H46.082a1,1,0,0,1,1,1V9A1,1,0,0,1,46.082,10Z" fill="#d3d9e8"/></g></g></g><g id="组_6201" data-name="组 6201" transform="translate(96.167)"><g id="组_6195-10" data-name="组 6195"><g id="组_6196-10" data-name="组 6196"><path id="减去_36-10" data-name="减去 36" d="M46.082,10H1A1,1,0,0,1,0,9V1A1,1,0,0,1,1,0H22.541a.5.5,0,0,1,.5.5v4a.5.5,0,0,0,1,0V.5a.5.5,0,0,1,.5-.5H46.082a1,1,0,0,1,1,1V9A1,1,0,0,1,46.082,10Z" fill="#d3d9e8"/></g></g></g><g id="组_6199" data-name="组 6199" transform="translate(48.082)"><g id="组_6195-11" data-name="组 6195" transform="translate(0)"><g id="组_6196-11" data-name="组 6196"><path id="减去_36-11" data-name="减去 36" d="M46.082,10H1A1,1,0,0,1,0,9V1A1,1,0,0,1,1,0H22.541a.5.5,0,0,1,.5.5v4a.5.5,0,0,0,1,0V.5a.5.5,0,0,1,.5-.5H46.082a1,1,0,0,1,1,1V9A1,1,0,0,1,46.082,10Z" fill="#d3d9e8"/></g></g></g><g id="组_6198" data-name="组 6198"><g id="组_6195-12" data-name="组 6195"><g id="组_6196-12" data-name="组 6196"><path id="减去_36-12" data-name="减去 36" d="M46.082,10H1A1,1,0,0,1,0,9V1A1,1,0,0,1,1,0H22.541a.5.5,0,0,1,.5.5v4a.5.5,0,0,0,1,0V.5a.5.5,0,0,1,.5-.5H46.082a1,1,0,0,1,1,1V9A1,1,0,0,1,46.082,10Z" fill="#d3d9e8"/></g></g></g></g></g><text id="_6" data-name="6" transform="translate(296.73 769)" fill="#a7adc0" font-size="10" font-family="SourceHanSansCN-Regular, Source Han Sans CN"><tspan x="5.239" y="9">6</tspan></text><text id="_4" data-name="4" transform="translate(248.148 769)" fill="#a7adc0" font-size="10" font-family="SourceHanSansCN-Regular, Source Han Sans CN"><tspan x="5.239" y="9">4</tspan></text><text id="_2" data-name="2" transform="translate(201.068 769)" fill="#a7adc0" font-size="10" font-family="SourceHanSansCN-Regular, Source Han Sans CN"><tspan x="5.239" y="9">2</tspan></text><text id="_0" data-name="0" transform="translate(161 769)" fill="#a7adc0" font-size="10" font-family="SourceHanSansCN-Regular, Source Han Sans CN"><tspan x="0" y="9">0</tspan></text><text id="_12" data-name="12" transform="translate(440.474 769)" fill="#a7adc0" font-size="10" font-family="SourceHanSansCN-Regular, Source Han Sans CN"><tspan x="2.464" y="9">12</tspan></text><text id="_10" data-name="10" transform="translate(391.891 769)" fill="#a7adc0" font-size="10" font-family="SourceHanSansCN-Regular, Source Han Sans CN"><tspan x="2.464" y="9">10</tspan></text><text id="_8" data-name="8" transform="translate(344.812 769)" fill="#a7adc0" font-size="10" font-family="SourceHanSansCN-Regular, Source Han Sans CN"><tspan x="5.239" y="9">8</tspan></text><text id="_18" data-name="18" transform="translate(584.218 769)" fill="#a7adc0" font-size="10" font-family="SourceHanSansCN-Regular, Source Han Sans CN"><tspan x="2.464" y="9">18</tspan></text><text id="_24" data-name="24" transform="translate(720.949 769)" fill="#a7adc0" font-size="10" font-family="SourceHanSansCN-Regular, Source Han Sans CN"><tspan x="4.927" y="9">24</tspan></text><text id="_16" data-name="16" transform="translate(535.635 769)" fill="#a7adc0" font-size="10" font-family="SourceHanSansCN-Regular, Source Han Sans CN"><tspan x="2.464" y="9">16</tspan></text><text id="_22" data-name="22" transform="translate(680.381 769)" fill="#a7adc0" font-size="10" font-family="SourceHanSansCN-Regular, Source Han Sans CN"><tspan x="2.464" y="9">22</tspan></text><text id="_14" data-name="14" transform="translate(488.555 769)" fill="#a7adc0" font-size="10" font-family="SourceHanSansCN-Regular, Source Han Sans CN"><tspan x="2.464" y="9">14</tspan></text><text id="_20" data-name="20" transform="translate(633.301 769)" fill="#a7adc0" font-size="10" font-family="SourceHanSansCN-Regular, Source Han Sans CN"><tspan x="2.464" y="9">20</tspan></text></g></svg>